# xmcd
#
# Track frame offsets:
#	150
#	15005
#	30467
#	46220
#	59778
#	75238
#	93679
#	107930
#	128670
#	146844
#	168940
#
# Disc length: 2423 seconds
#
# Revision: 0
# Processed by: cddbd v1.5.1PL0 Copyright (c) Steve Scherf et al.
# Submitted via: audiograbber 1.83.01
#
DISCID=8609750b
DTITLE=Gino Ruberto - Gino Ruberto
DYEAR=2001
DGENRE=Country
TTITLE0=Fifteen Country Songs
TTITLE1=Sit Down and be Quiet
TTITLE2=For the First Time in My Life
TTITLE3=To Make You Want Me
TTITLE4=Wgat's Come Over You
TTITLE5=Nights on Broadway
TTITLE6=Check Please
TTITLE7=Five Seconds from Elvis
TTITLE8=Have You No Shame
TTITLE9=Brave
TTITLE10=Heavy Metal
EXTD=
EXTT0=
EXTT1=
EXTT2=
EXTT3=
EXTT4=
EXTT5=
EXTT6=
EXTT7=
EXTT8=
EXTT9=
EXTT10=
PLAYORDER=
